<svg width="109" height="18" viewBox="0 0 109 18" xmlns="http://www.w3.org/2000/svg"><title>CRA_logo_white_CMYK</title><g fill="none" fill-rule="evenodd"><path fill="#55D4F6" d="M12 0v6H0v6h6v6h6v-6H23.999V6h-6V0z"/><g fill="#FFF"><path d="M39.912 11.063c-.21.536-.447.998-.566 1.147-.358.506-1.058 1.266-1.967 1.266h-1.95c-.358 0-.731-.134-.984-.283-.313-.194-.88-.79-1.087-1.072a1.767 1.767 0 0 1-.253-.924V6.684c0-.327.059-.64.253-.923.179-.239.759-.864 1.102-1.073.238-.134.61-.283.969-.283h1.95c.909 0 1.595.775 1.952 1.252.119.149.447.774.58 1.147l-1.757.491c-.06-.149-.075-.179-.09-.209-.178-.372-.327-.655-.744-.938h-1.817a2.754 2.754 0 0 0-.581.596v4.439c0 .014.223.341.58.55h1.818c.164-.104.462-.432.596-.655 0 0 .104-.179.238-.476l1.758.461zM49.074 6.565a1.097 1.097 0 0 0-.387-.357h-2.532v2.04h2.532c.06 0 .298-.209.387-.358V6.565zm.388 6.836l-2.22-3.41h-1.087v3.41h-1.817V4.465h4.349c.387 0 .834.12 1.132.342.193.134.64.611.79.82.178.282.282.654.282.983v1.266c0 .357-.09.684-.282.967-.12.21-.567.67-.79.805-.284.164-.417.21-.507.253-.015.015-.03 0-.044.015.729 1.087 1.579 2.383 2.308 3.485h-2.114zM58.966 7.071c-.328.953-.67 1.922-.998 2.875h2.01l-1.012-2.875zm2.16 6.33l-.596-1.712h-3.113c-.194.55-.417 1.161-.61 1.712H54.87l3.098-8.936h2.01l3.084 8.936h-1.937zM70.362 6.208v7.193H68.53V6.208h-2.413V4.465h6.643v1.743zM77.097 13.401V4.465h5.869v1.743h-4.052V8.04h3.917v1.743h-3.917v1.876h4.052v1.743zM87.942 13.401h2.101v-2.115h-2.101zM94.915 13.401h1.832V4.465h-1.832zM106.742 6.7a2.104 2.104 0 0 0-.536-.552h-2.264c-.12.09-.372.313-.551.566v4.468c.164.223.417.476.537.551h2.263c.12-.09.388-.343.55-.55V6.698zm1.564 5.405c-.193.253-.76.894-1.086 1.088a2.061 2.061 0 0 1-.984.283h-2.34c-.371 0-.728-.134-.981-.283-.328-.194-.91-.835-1.088-1.088-.193-.282-.253-.61-.253-.923V6.7c0-.328.06-.655.253-.938.179-.239.76-.879 1.088-1.073.253-.149.61-.283.982-.283h2.339c.358 0 .73.134.984.283.327.194.893.834 1.086 1.073.194.283.254.61.254.938v4.483c0 .312-.06.641-.254.923z"/></g></g></svg>