<svg width="25" height="25" viewBox="0 0 25 25" xmlns="http://www.w3.org/2000/svg"><title>icon cluster</title><g stroke-width="2" stroke="#FFF" fill="none" fill-rule="evenodd"><path d="M16.827 8.172a4 4 0 1 1-5.656 5.656 4 4 0 0 1 5.656-5.656M3.56 4.94a1.5 1.5 0 1 1-2.12 2.12 1.5 1.5 0 0 1 2.12-2.12M23.56 1.44a1.5 1.5 0 1 1-2.12 2.12 1.5 1.5 0 0 1 2.12-2.12M3.56 21.44a1.5 1.5 0 1 1-2.12 2.12 1.5 1.5 0 0 1 2.12-2.12M15.06 21.44a1.5 1.5 0 1 1-2.122 2.12 1.5 1.5 0 0 1 2.122-2.12M3.56 21.439l7.62-7.601m5.653-5.661l4.605-4.615M3.85 6.65l6.472 2.775m10.74 5.104l-3.618-1.495M13.999 21v-6M23.56 13.94a1.5 1.5 0 1 1-2.12 2.12 1.5 1.5 0 0 1 2.12-2.12"/></g></svg>