<svg width="17" height="16" viewBox="0 0 17 16" xmlns="http://www.w3.org/2000/svg"><title>Fill 1</title><path d="M8.153 0C3.78 0 .221 3.588.221 8s3.558 8 7.932 8c4.373 0 7.932-3.588 7.932-8s-3.56-8-7.932-8zm3.71 10.494a.89.89 0 0 1 0 1.248.874.874 0 0 1-1.238 0l-2.47-2.495-2.474 2.495a.874.874 0 0 1-1.238 0 .89.89 0 0 1 0-1.248L6.916 8 4.443 5.505a.89.89 0 0 1 0-1.248.873.873 0 0 1 1.236 0L8.152 6.75l2.473-2.494a.873.873 0 0 1 1.237 0 .89.89 0 0 1 0 1.248L9.389 8l2.474 2.494z" fill="#333" fill-rule="evenodd" opacity=".3"/></svg>