<svg width="45" height="46" viewBox="0 0 45 46" xmlns="http://www.w3.org/2000/svg"><title>Stroke 3</title><path d="M35.419 24.085l-2.612-8.58 3.585-1.1a3.885 3.885 0 0 0 2.566-4.848 3.863 3.863 0 0 0-4.827-2.578L30.547 8.08l-1.319-4.332a3.863 3.863 0 0 0-4.827-2.577 3.885 3.885 0 0 0-2.566 4.848l1.319 4.331-8.694 2.67-1.318-4.332A3.863 3.863 0 0 0 8.315 6.11a3.885 3.885 0 0 0-2.567 4.848l1.319 4.332-3.33 1.023A3.885 3.885 0 0 0 1.17 21.16a3.863 3.863 0 0 0 4.827 2.577l3.33-1.023 2.612 8.58-3.33 1.022a3.885 3.885 0 0 0-2.567 4.848 3.863 3.863 0 0 0 4.827 2.578l3.33-1.023 1.075 3.532a3.863 3.863 0 0 0 4.827 2.577 3.885 3.885 0 0 0 2.566-4.848l-1.075-3.531 8.694-2.67 1.075 3.532a3.863 3.863 0 0 0 4.826 2.578 3.885 3.885 0 0 0 2.567-4.848l-1.075-3.532 3.585-1.1a3.885 3.885 0 0 0 2.566-4.848 3.863 3.863 0 0 0-4.827-2.578l-3.584 1.1zm-7.394 2.27l-2.611-8.58-8.693 2.67 2.611 8.58 8.693-2.67z" stroke="#337ab7" stroke-width="2" fill="none" fill-rule="evenodd"/></svg>