<svg width="48" height="47" viewBox="0 0 48 47" xmlns="http://www.w3.org/2000/svg"><title>Page 1</title><path d="M23.998.132C10.766.132 0 10.898 0 24.132 0 34.486 6.596 43.64 16.552 46.944l.572.052c1.246 0 2.118-.87 2.118-2.12l.002-.572c.002-.752.008-1.976-.002-3.428a1 1 0 0 0-1.214-.972c-.756.164-1.468.246-2.122.246-3.554 0-4.398-2.49-4.456-2.664a9.71 9.71 0 0 0-1.252-2.286c.376.394.576.744.586.76 1.454 2.488 3.48 3.01 4.926 3.01 1.242 0 2.338-.376 3.038-.69a1 1 0 0 0 .58-.772c.152-1.072.562-1.968 1.128-2.456.3-.26.418-.672.3-1.05a1.007 1.007 0 0 0-.842-.7c-4.742-.542-9.59-2.2-9.59-10.378 0-2.12.71-3.968 2.106-5.498.26-.286.334-.696.188-1.052-.208-.506-.78-2.272.018-4.748.724.052 2.358.41 5.044 2.232a.995.995 0 0 0 .828.134c1.702-.472 3.602-.728 5.486-.738 1.92.01 3.77.258 5.498.738.28.08.586.03.828-.134 2.684-1.82 4.312-2.178 5.04-2.232.82 2.552.17 4.388.022 4.752-.146.36-.072.77.188 1.054 1.396 1.524 2.104 3.372 2.104 5.496 0 8.188-4.86 9.828-9.612 10.354a.999.999 0 1 0-.546 1.75c.37.32 1.228 1.3 1.228 3.484v6.368c0 1.246.87 2.116 2.116 2.116.184 0 .386-.018.74-.094A23.973 23.973 0 0 0 48 24.132c0-13.234-10.768-24-24.002-24zm7.1 44.842l-.236.026-.116-.116v-6.368c0-1.534-.336-2.668-.76-3.49 4.57-.82 9.688-3.286 9.688-12.098 0-2.432-.75-4.578-2.232-6.39.33-1.138.69-3.406-.432-6.236a1.004 1.004 0 0 0-.624-.584c-.094-.03-.364-.1-.814-.1-1.12 0-3.052.412-5.986 2.33a23.053 23.053 0 0 0-5.588-.694c-1.938.01-3.81.244-5.578.694-2.934-1.918-4.868-2.33-5.988-2.33-.454 0-.724.07-.818.1a1 1 0 0 0-.626.586c-1.118 2.828-.76 5.096-.428 6.234-1.482 1.816-2.234 3.962-2.234 6.39 0 8.812 5.12 11.286 9.684 12.12-.242.48-.43 1.02-.556 1.602a5.281 5.281 0 0 1-1.742.324c-1.36 0-2.406-.66-3.188-1.996-.06-.11-1.512-2.688-4.41-2.884-1.064 0-1.766.374-1.976 1.058-.332 1.07.83 1.866 1.39 2.238.048.024 1.2.638 2.034 2.752.048.164 1.262 4.012 6.344 4.012.432 0 .878-.028 1.34-.086l-.002 2.23-.12.7-.078.014A21.975 21.975 0 0 1 2 24.132c0-12.13 9.87-22 21.998-22 12.132 0 22.002 9.87 22.002 22 0 9.486-6.042 17.876-14.902 20.842z" fill="#337ab7" fill-rule="evenodd"/></svg>