<svg width="38" height="48" viewBox="0 0 38 48" xmlns="http://www.w3.org/2000/svg"><title>Page 1</title><g fill="none" fill-rule="evenodd"><path d="M1 17h20v30H1V17zm36 30H21V17h-4V1h20v46zm-10-6h6v6h-6v-6zM5 41h6v6H5v-6zM1 21h8-8zm0 4h6-6zM17 9h8-8zm0-4h12-12zm0 8h6-6zM1 29h4-4z" fill="none"/><path d="M1 17h20v30H1V17zm36 30H21V17h-4V1h20v46zm-10-6h6v6h-6v-6zM5 41h6v6H5v-6zM1 21h15H1zm0 4h15H1zM17 9h15-15zm0-4h15-15zm0 8h15-15zM1 29h15H1z" stroke="#337ab7" stroke-width="2" stroke-linecap="round" stroke-linejoin="round"/></g></svg>